Coordinates
version=1
nRows=49
nColumns=12
inDegrees=yes

Units are S.I. units (second, meters, Newtons, ...)
Angles are in degrees

endheader
time	SC_y	SC_z	SC_x	AC_y	AC_z	AC_x	GH_y	GH_z	GH_yy	EL_x	PS_y
       0.0              -21.77          10.62          65.53          48.25         -9.863           1.17          -5.08          52.69         -148.4          46.92          51.73
   0.01838              -21.77          10.62          65.52          48.25         -9.861           1.17         -5.104          52.68         -148.4          46.92          51.73
   0.03676              -21.77          10.62          65.51          48.25         -9.858          1.171          -5.13          52.67         -148.4          46.92          51.73
   0.05514              -21.77          10.62           65.5          48.25         -9.856          1.171         -5.158          52.65         -148.3          46.93          51.72
   0.07352              -21.77          10.63           65.5          48.26         -9.853          1.171         -5.188          52.64         -148.3          46.93          51.72
    0.0919              -21.78          10.63          65.49          48.26          -9.85          1.172         -5.219          52.63         -148.2          46.93          51.71
    0.1103              -21.78          10.63          65.48          48.26         -9.847          1.172         -5.252          52.61         -148.2          46.94          51.71
    0.1287              -21.78          10.63          65.46          48.26         -9.844          1.172         -5.288           52.6         -148.1          46.94           51.7
     0.147              -21.78          10.63          65.45          48.26         -9.841          1.173         -5.327          52.58         -148.1          46.95           51.7
    0.1654              -21.78          10.63          65.44          48.27         -9.837          1.173         -5.368          52.56         -148.0          46.95          51.69
    0.1838              -21.79          10.63          65.43          48.27         -9.833          1.174         -5.412          52.54         -148.0          46.96          51.68
    0.2022              -21.79          10.64          65.41          48.27         -9.829          1.174          -5.46          52.52         -147.9          46.96          51.68
    0.2206              -21.79          10.64           65.4          48.27         -9.824          1.175         -5.511           52.5         -147.8          46.97          51.67
    0.2389               -21.8          10.64          65.38          48.28         -9.819          1.176         -5.567          52.48         -147.7          46.98          51.66
    0.2573               -21.8          10.64          65.36          48.28         -9.814          1.176         -5.627          52.45         -147.6          46.98          51.65
    0.2757               -21.8          10.64          65.34          48.29         -9.808          1.177         -5.692          52.42         -147.5          46.99          51.64
    0.2941              -21.81          10.65          65.32          48.29         -9.802          1.178         -5.762          52.39         -147.4           47.0          51.63
    0.3125              -21.81          10.65          65.29          48.29         -9.795          1.179          -5.84          52.36         -147.3          47.01          51.62
    0.3309              -21.82          10.65          65.27           48.3         -9.787           1.18         -5.924          52.32         -147.2          47.02          51.61
    0.3492              -21.82          10.65          65.24           48.3         -9.779          1.181         -6.016          52.28         -147.1          47.03          51.59
    0.3676              -21.83          10.66          65.21          48.31          -9.77          1.182         -6.117          52.24         -146.9          47.04          51.58
     0.386              -21.83          10.66          65.17          48.32          -9.76          1.183         -6.228          52.19         -146.8          47.05          51.56
    0.4044              -21.84          10.67          65.14          48.32         -9.749          1.185         -6.351          52.14         -146.6          47.07          51.54
    0.4228              -21.85          10.67          65.09          48.33         -9.737          1.186         -6.488          52.08         -146.4          47.08          51.52
    0.4411              -21.86          10.67          65.05          48.34         -9.723          1.188         -6.639          52.01         -146.1           47.1           51.5
    0.4595              -21.87          10.68          64.99          48.35         -9.708           1.19         -6.808          51.94         -145.9          47.12          51.48
    0.4779              -21.88          10.69          64.94          48.36         -9.691          1.192         -6.997          51.86         -145.6          47.14          51.45
    0.4963              -21.89          10.69          64.87          48.37         -9.672          1.195          -7.21          51.77         -145.3          47.17          51.42
    0.5147              -21.91           10.7          64.79          48.39          -9.65          1.198         -7.451          51.66         -144.9           47.2          51.38
     0.533              -21.92          10.71          64.71           48.4         -9.626          1.201         -7.724          51.54         -144.5          47.23          51.34
    0.5514              -21.94          10.72          64.61          48.42         -9.598          1.204         -8.036          51.41         -144.1          47.27           51.3
    0.5698              -21.96          10.73           64.5          48.44         -9.566          1.209         -8.394          51.25         -143.6          47.31          51.24
    0.5882              -21.99          10.75          64.37          48.47         -9.529          1.213         -8.807          51.08         -143.0          47.36          51.18
    0.6066              -22.01          10.76          64.23           48.5         -9.486          1.219         -9.288          50.87         -142.2          47.41          51.11
    0.6249              -22.05          10.78          64.05          48.53         -9.436          1.225         -9.849          50.62         -141.4          47.48          51.03
    0.6433              -22.08          10.81          63.85          48.57         -9.376          1.233         -10.51          50.34         -140.4          47.56          50.93
    0.6617              -22.13          10.83           63.6          48.61         -9.306          1.242          -11.3           50.0         -139.3          47.65          50.81
    0.6801              -22.19          10.86          63.31          48.67         -9.221          1.253         -12.24          49.59         -137.9          47.76          50.67
    0.6985              -22.25           10.9          62.96          48.74         -9.119          1.266         -13.38           49.1         -136.2           47.9           50.5
    0.7168              -22.33          10.95          62.53          48.82         -8.994          1.283         -14.78          48.49         -134.2          48.06           50.3
    0.7352              -22.43          11.01          61.99          48.92          -8.84          1.303          -16.5          47.75         -131.6          48.26          50.04
    0.7536              -22.56          11.08          61.33          49.05         -8.648          1.328         -18.64          46.82         -128.5          48.52          49.72
     0.772              -22.72          11.17          60.49           49.2         -8.406          1.359         -21.35          45.65         -124.5          48.84          49.32
    0.7904              -22.92          11.29          59.43          49.41         -8.098          1.399         -24.78          44.17         -119.4          49.24          48.82
    0.8087              -23.18          11.43          58.07          49.66         -7.705           1.45         -29.18          42.26         -112.9          49.76          48.16
    0.8271              -23.51          11.62          56.32           50.0         -7.199          1.515         -34.83          39.82         -104.6          50.43          47.33
    0.8455              -23.93          11.87          54.09          50.42         -6.554          1.599         -42.04          36.71         -93.99          51.28          46.26
    0.8639              -24.46          12.17          51.28          50.95         -5.742          1.704          -51.1          32.78         -80.64          52.35          44.92
    0.8823               -25.1          12.54          47.86           51.6         -4.753          1.833         -62.15          28.01         -64.36          53.65          43.28
